<svg xmlns="http://www.w3.org/2000/svg" xmlns:xlink="http://www.w3.org/1999/xlink" version="1.1" viewBox="0 0 160 160"><title>Google scholar</title><defs><rect id="path-1" width="160" height="160" x="0" y="0"/></defs><g id="RAGFlow" fill="none" fill-rule="evenodd" stroke="none" stroke-width="1"><g id="tool-logo" transform="translate(-1448, -355)"><g id="Google-scholar" transform="translate(1448, 355)"><mask id="mask-2" fill="#fff"><use xlink:href="#path-1"/></mask><use id="矩形" fill="#D8D8D8" fill-opacity="0" xlink:href="#path-1"/><g id="RAGFlow" fill-rule="nonzero" mask="url(#mask-2)"><g id="路径" transform="translate(17, 17)"><polygon fill="#4285F4" points="63 101.174 0 49.875 63 0"/><polygon fill="#356AC3" points="63 101.174 126 49.875 63 0"/><path fill="#A0C3FF" d="M26.250082,89.250082 C26.250082,109.546501 42.7035807,126 63,126 C83.2964193,126 99.749918,109.546501 99.749918,89.250082 C99.749918,76.1206008 92.7454234,63.9884597 81.3749591,57.423719 C70.0044949,50.8589783 55.9955051,50.8589783 44.6250409,57.423719 C33.2545766,63.9884597 26.250082,76.1206008 26.250082,89.250082 L26.250082,89.250082 Z"/><path fill="#76A7FA" d="M29.7864492,73.500082 C35.6848242,61.0839141 48.3399492,52.499918 63,52.499918 C77.6600508,52.499918 90.3151758,61.0839141 96.2135508,73.500082 L29.7864492,73.500082 L29.7864492,73.500082 Z"/></g></g></g></g></g></svg>